<svg width="20" height="19" viewBox="0 0 20 19" fill="none" xmlns="http://www.w3.org/2000/svg">
<path d="M9.13228 1.6563C9.43163 0.734991 10.735 0.734989 11.0344 1.6563L12.5249 6.24369C12.6588 6.65571 13.0428 6.93467 13.476 6.93467H18.2994C19.2682 6.93467 19.6709 8.17429 18.8872 8.74369L14.985 11.5788C14.6345 11.8335 14.4878 12.2849 14.6217 12.6969L16.1122 17.2843C16.4116 18.2056 15.3571 18.9717 14.5734 18.4023L10.6711 15.5671C10.3206 15.3125 9.84604 15.3125 9.49555 15.5671L5.59329 18.4023C4.80957 18.9717 3.75509 18.2056 4.05444 17.2843L5.54498 12.6969C5.67885 12.2849 5.53219 11.8335 5.1817 11.5789L1.27944 8.74369C0.495726 8.17429 0.898499 6.93467 1.86722 6.93467H6.69069C7.12392 6.93467 7.50787 6.65571 7.64175 6.24369L9.13228 1.6563Z" fill="#AB816C"/>
</svg>
