<svg aria-hidden="true" style="position: absolute; width: 0; height: 0; overflow: hidden;" version="1.1" xmlns="http://www.w3.org/2000/svg" xmlns:xlink="http://www.w3.org/1999/xlink">
<defs>
<symbol id="icon-chat" viewBox="0 0 40 32">
<path fill="#674d40" style="fill: var(--color1, #674d40)" d="M30.776 13.874c0-8.381-7.7-13.874-15.388-13.874-7.718 0-15.388 5.519-15.388 13.874 0 3.161 1.207 6.252 3.398 8.703 0.084 0.094 0.116 0.236 0.084 0.372-0.688 2.892-2.318 5.505-2.987 6.495-0.208 0.308-0.242 0.715-0.089 1.062 0.15 0.34 0.445 0.548 0.776 0.548 0.008 0 0.015 0 0.022-0 3.273-0.094 7.067-1.153 9.412-3.799 0.082-0.092 0.2-0.129 0.315-0.098 1.441 0.392 2.941 0.591 4.458 0.591 7.716-0 15.388-5.517 15.388-13.874zM11.2 25.849c-0.509-0.139-1.035 0.028-1.407 0.447-2.345 2.645-6.174 3.247-7.987 3.38 0.828-1.311 2.174-3.72 2.806-6.373 0.144-0.606-0.008-1.253-0.396-1.688-1.991-2.228-3.044-4.905-3.044-7.741 0-6.909 6.377-12.529 14.216-12.529s14.216 5.621 14.216 12.529c0 6.909-6.377 12.53-14.216 12.53-1.426 0-2.835-0.187-4.188-0.555z"></path>
<path fill="#674d40" style="fill: var(--color1, #674d40)" d="M34.544 25.043c3.416-1.981 5.456-5.356 5.456-9.030 0-5.192-4.091-9.629-9.728-10.55-0.32-0.052-0.617 0.203-0.663 0.571s0.177 0.708 0.497 0.76c5.053 0.825 8.721 4.702 8.721 9.219 0 3.156-1.799 6.083-4.813 7.831-0.586 0.34-0.9 1.091-0.763 1.827 0.286 1.54 0.894 2.967 1.38 3.933-3.46-0.661-4.772-2.565-5.186-3.39-0.256-0.509-0.735-0.824-1.251-0.824-0.002 0-0.003 0-0.005 0h-0.043c-0.65 0-1.3-0.052-1.934-0.154-0.32-0.052-0.617 0.204-0.662 0.572s0.178 0.708 0.499 0.759c0.687 0.111 1.392 0.167 2.097 0.167h0.048c0.098 0 0.188 0.058 0.235 0.152 1.587 3.155 5.235 3.961 6.73 4.161 0.33 0.044 0.645-0.129 0.821-0.453s0.174-0.723-0.006-1.043c-0.45-0.805-1.254-2.415-1.577-4.16-0.026-0.139 0.034-0.282 0.146-0.347z"></path>
<path fill="#674d40" style="fill: var(--color1, #674d40)" d="M6.27 11.47c-1.12 0-2.031 1.045-2.031 2.33s0.911 2.33 2.031 2.33c1.12 0 2.031-1.045 2.031-2.33s-0.911-2.33-2.031-2.33zM6.27 14.785c-0.474 0-0.859-0.442-0.859-0.985s0.385-0.985 0.859-0.985c0.474 0 0.859 0.442 0.859 0.985s-0.385 0.985-0.859 0.985z"></path>
<path fill="#674d40" style="fill: var(--color1, #674d40)" d="M12.063 11.47c-1.12 0-2.031 1.045-2.031 2.33s0.911 2.33 2.031 2.33c1.12 0 2.031-1.045 2.031-2.33s-0.911-2.33-2.031-2.33zM12.063 14.785c-0.474 0-0.859-0.442-0.859-0.985s0.385-0.985 0.859-0.985c0.473 0 0.859 0.442 0.859 0.985s-0.385 0.985-0.859 0.985z"></path>
<path fill="#674d40" style="fill: var(--color1, #674d40)" d="M17.856 11.47c-1.12 0-2.031 1.045-2.031 2.33s0.911 2.33 2.031 2.33c1.12 0 2.031-1.045 2.031-2.33s-0.911-2.33-2.031-2.33zM17.856 14.785c-0.474 0-0.859-0.442-0.859-0.985s0.385-0.985 0.859-0.985c0.474 0 0.859 0.442 0.859 0.985s-0.385 0.985-0.859 0.985z"></path>
<path fill="#674d40" style="fill: var(--color1, #674d40)" d="M23.65 11.47c-1.12 0-2.031 1.045-2.031 2.33s0.911 2.33 2.031 2.33c1.12 0 2.031-1.045 2.031-2.33s-0.911-2.33-2.031-2.33zM23.65 14.785c-0.474 0-0.859-0.442-0.859-0.985s0.385-0.985 0.859-0.985c0.473 0 0.859 0.442 0.859 0.985s-0.385 0.985-0.859 0.985z"></path>
</symbol>
<symbol id="icon-chef-hat" viewBox="0 0 31 32">
<path fill="#674d40" style="fill: var(--color1, #674d40)" d="M21.767 8.572c-0.114 0-0.223-0.052-0.304-0.144s-0.126-0.218-0.126-0.349c-0.033-1.889-0.711-3.688-1.887-5.011s-2.758-2.063-4.405-2.063-3.229 0.741-4.405 2.063c-1.176 1.323-1.854 3.122-1.887 5.011 0 0.131-0.045 0.256-0.126 0.349s-0.19 0.144-0.304 0.144c-0.114 0-0.223-0.052-0.304-0.144s-0.126-0.218-0.126-0.349c0.029-2.154 0.795-4.209 2.134-5.72s3.141-2.359 5.018-2.359c1.878 0 3.68 0.847 5.019 2.359s2.104 3.566 2.134 5.72c0 0.131-0.045 0.256-0.126 0.349s-0.19 0.144-0.304 0.144z"></path>
<path fill="#674d40" style="fill: var(--color1, #674d40)" d="M23.022 19.732c-0.114 0.001-0.224-0.050-0.305-0.142s-0.127-0.217-0.128-0.348c-0.001-0.131 0.044-0.256 0.124-0.35s0.189-0.146 0.303-0.147c1.637-0.011 3.205-0.759 4.366-2.082s1.824-3.117 1.846-4.995c-0.016-1.896-0.688-3.708-1.866-5.037s-2.769-2.068-4.422-2.054c-0.635-0.001-1.266 0.106-1.873 0.319-0.108 0.036-0.225 0.022-0.324-0.040s-0.174-0.166-0.207-0.289c-0.033-0.124-0.022-0.258 0.030-0.373s0.142-0.202 0.249-0.241c0.689-0.241 1.405-0.363 2.125-0.362 1.881-0.014 3.69 0.829 5.030 2.343s2.102 3.577 2.118 5.734c-0.022 2.137-0.774 4.179-2.095 5.687s-3.104 2.361-4.967 2.376h-0.005z"></path>
<path fill="#674d40" style="fill: var(--color1, #674d40)" d="M7.066 19.732h-0.005c-1.863-0.015-3.646-0.868-4.967-2.376s-2.073-3.55-2.095-5.687c0.016-2.158 0.778-4.22 2.118-5.734s3.149-2.357 5.030-2.343c0.72-0.001 1.436 0.121 2.125 0.362 0.055 0.018 0.106 0.049 0.15 0.090s0.081 0.092 0.108 0.149c0.027 0.058 0.044 0.121 0.050 0.186s-0 0.131-0.017 0.193c-0.017 0.063-0.044 0.121-0.081 0.171s-0.081 0.092-0.132 0.122c-0.050 0.030-0.106 0.049-0.163 0.054s-0.114-0.002-0.168-0.022c-0.607-0.212-1.238-0.32-1.873-0.319-1.653-0.014-3.243 0.725-4.422 2.054s-1.85 3.141-1.866 5.037c0.021 1.878 0.684 3.671 1.846 4.995s2.729 2.071 4.366 2.082c0.056 0 0.112 0.014 0.164 0.039s0.099 0.062 0.139 0.108 0.071 0.101 0.092 0.161c0.021 0.060 0.032 0.124 0.032 0.189s-0.012 0.129-0.034 0.189c-0.022 0.060-0.054 0.114-0.094 0.159s-0.088 0.082-0.14 0.106-0.108 0.037-0.165 0.036z"></path>
<path fill="#674d40" style="fill: var(--color1, #674d40)" d="M23.022 32h-15.955c-0.114 0-0.223-0.052-0.304-0.145s-0.126-0.218-0.126-0.349v-12.267c0-0.131 0.045-0.256 0.126-0.349s0.19-0.144 0.304-0.144 0.223 0.052 0.304 0.144c0.081 0.093 0.126 0.218 0.126 0.349v11.774h15.096v-11.774c0-0.131 0.045-0.256 0.126-0.349s0.19-0.144 0.304-0.144c0.114 0 0.223 0.052 0.304 0.144s0.126 0.218 0.126 0.349v12.267c0 0.131-0.045 0.256-0.126 0.349s-0.19 0.145-0.304 0.145z"></path>
<path fill="#674d40" style="fill: var(--color1, #674d40)" d="M26.014 27.222h-15.955c-0.114 0-0.223-0.052-0.304-0.145s-0.126-0.218-0.126-0.349c0-0.131 0.045-0.256 0.126-0.349s0.19-0.145 0.304-0.145h15.955c0.114 0 0.223 0.052 0.304 0.145s0.126 0.218 0.126 0.349c0 0.131-0.045 0.256-0.126 0.349s-0.19 0.145-0.304 0.145z"></path>
</symbol>
<symbol id="icon-clock" viewBox="0 0 32 32">
<path fill="#674d40" style="fill: var(--color1, #674d40)" d="M16 0c-8.822 0-16 7.178-16 16s7.178 16 16 16c8.822 0 16-7.178 16-16s-7.178-16-16-16zM16 30.933c-8.234 0-14.933-6.699-14.933-14.933s6.699-14.933 14.933-14.933c8.234 0 14.933 6.699 14.933 14.933s-6.699 14.933-14.933 14.933z"></path>
<path fill="#674d40" style="fill: var(--color1, #674d40)" d="M16.533 13.878v-5.409c0-0.295-0.239-0.533-0.533-0.533s-0.533 0.238-0.533 0.533v5.409c-0.746 0.194-1.33 0.778-1.524 1.524h-3.809c-0.294 0-0.533 0.238-0.533 0.533s0.239 0.533 0.533 0.533h3.809c0.238 0.917 1.067 1.6 2.058 1.6 1.177 0 2.133-0.957 2.133-2.133 0-0.992-0.683-1.819-1.6-2.058zM16 17.002c-0.588 0-1.067-0.478-1.067-1.067s0.478-1.067 1.067-1.067c0.588 0 1.067 0.478 1.067 1.067s-0.478 1.067-1.067 1.067z"></path>
<path fill="#674d40" style="fill: var(--color1, #674d40)" d="M16 5.269c0.294 0 0.533-0.238 0.533-0.533v-0.533c0-0.295-0.239-0.533-0.533-0.533s-0.533 0.238-0.533 0.533v0.533c0 0.295 0.239 0.533 0.533 0.533z"></path>
<path fill="#674d40" style="fill: var(--color1, #674d40)" d="M16 26.602c-0.294 0-0.533 0.238-0.533 0.533v0.533c0 0.295 0.239 0.533 0.533 0.533s0.533-0.238 0.533-0.533v-0.533c0-0.295-0.239-0.533-0.533-0.533z"></path>
<path fill="#674d40" style="fill: var(--color1, #674d40)" d="M27.733 15.402h-0.533c-0.294 0-0.533 0.238-0.533 0.533s0.239 0.533 0.533 0.533h0.533c0.294 0 0.533-0.238 0.533-0.533s-0.239-0.533-0.533-0.533z"></path>
<path fill="#674d40" style="fill: var(--color1, #674d40)" d="M4.8 15.402h-0.533c-0.294 0-0.533 0.238-0.533 0.533s0.239 0.533 0.533 0.533h0.533c0.294 0 0.533-0.238 0.533-0.533s-0.239-0.533-0.533-0.533z"></path>
<path fill="#674d40" style="fill: var(--color1, #674d40)" d="M23.919 7.262l-0.377 0.377c-0.209 0.209-0.209 0.546 0 0.754 0.104 0.104 0.241 0.156 0.377 0.156s0.273-0.052 0.377-0.156l0.377-0.377c0.209-0.209 0.209-0.546 0-0.754s-0.546-0.208-0.754 0z"></path>
<path fill="#674d40" style="fill: var(--color1, #674d40)" d="M7.703 23.478l-0.377 0.377c-0.209 0.209-0.209 0.546 0 0.754 0.104 0.104 0.241 0.156 0.377 0.156s0.273-0.052 0.377-0.156l0.377-0.377c0.209-0.209 0.209-0.546 0-0.754s-0.546-0.208-0.754 0z"></path>
<path fill="#674d40" style="fill: var(--color1, #674d40)" d="M24.297 23.478c-0.209-0.209-0.546-0.209-0.754 0s-0.209 0.546 0 0.754l0.377 0.377c0.104 0.104 0.241 0.156 0.377 0.156s0.273-0.052 0.377-0.156c0.209-0.209 0.209-0.546 0-0.754l-0.377-0.377z"></path>
<path fill="#674d40" style="fill: var(--color1, #674d40)" d="M8.081 7.261c-0.209-0.209-0.546-0.209-0.754 0s-0.209 0.546 0 0.754l0.377 0.377c0.104 0.104 0.241 0.156 0.377 0.156s0.273-0.052 0.377-0.156c0.209-0.209 0.209-0.546 0-0.754l-0.377-0.377z"></path>
</symbol>
<symbol id="icon-close" viewBox="0 0 32 32">
<path d="M30.355 32c0.422 0 0.843-0.16 1.163-0.483 0.643-0.643 0.643-1.685 0-2.328l-28.707-28.707c-0.643-0.643-1.685-0.643-2.328 0s-0.643 1.685 0 2.329l28.707 28.706c0.323 0.321 0.744 0.483 1.165 0.483z"></path>
<path d="M1.645 32c0.422 0 0.843-0.16 1.163-0.483l28.709-28.706c0.643-0.643 0.643-1.686 0-2.329s-1.685-0.643-2.329 0l-28.707 28.707c-0.643 0.643-0.643 1.685 0 2.328 0.323 0.321 0.744 0.483 1.163 0.483z"></path>
</symbol>
<symbol id="icon-menu-burger" viewBox="0 0 60 32">
<path d="M2 0h56c1.105 0 2 0.895 2 2s-0.895 2-2 2h-56c-1.105 0-2-0.895-2-2s0.895-2 2-2z"></path>
<path d="M2 14h56c1.105 0 2 0.895 2 2s-0.895 2-2 2h-56c-1.105 0-2-0.895-2-2s0.895-2 2-2z"></path>
<path d="M2 28h56c1.105 0 2 0.895 2 2s-0.895 2-2 2h-56c-1.105 0-2-0.895-2-2s0.895-2 2-2z"></path>
</symbol>
<symbol id="icon-people" viewBox="0 0 31 32">
<path fill="#674d40" style="fill: var(--color1, #674d40)" d="M10.607 0c-3.293 0-5.976 3.077-5.976 6.856s2.682 6.856 5.976 6.856c3.293 0 5.976-3.077 5.976-6.856s-2.682-6.856-5.976-6.856zM10.607 12.562c-2.749 0-4.98-2.566-4.98-5.713s2.236-5.713 4.98-5.713c2.749 0 4.98 2.566 4.98 5.713s-2.236 5.713-4.98 5.713z"></path>
<path fill="#674d40" style="fill: var(--color1, #674d40)" d="M22.846 2.846c-2.474 0-4.485 2.306-4.485 5.145s2.010 5.145 4.485 5.145c2.475 0 4.485-2.306 4.485-5.145s-2.010-5.145-4.485-5.145zM22.846 12.001c-1.925 0-3.489-1.795-3.489-4.003s1.564-4.003 3.489-4.003c1.925 0 3.489 1.795 3.489 4.003s-1.564 4.003-3.489 4.003z"></path>
<path fill="#674d40" style="fill: var(--color1, #674d40)" d="M30.868 20.679c-0.452-3.126-2.145-5.762-5.028-7.143 0 0-1.277 1.108-2.994 1.072-1.876-0.042-2.994-1.072-2.994-1.072s-1.393 0.596-2.517 1.837c-1.039-1.058-2.792-1.921-2.792-1.921s-1.607 1.402-3.941 1.381c-2.45-0.021-3.929-1.381-3.929-1.381s-5.297 2.089-6.415 9.176c0 0-1.198 3.757 1.576 9.372h17.554c0 0 1.246-2.488 1.466-4.003h8.731c2.145-3.729 1.283-7.318 1.283-7.318zM18.77 30.857h-16.32c-2.132-4.648-1.21-8.040-1.21-8.040 0.519-3.554 2.511-6.554 5.358-8.075 2.444 1.647 5.578 1.647 8.022 0 2.847 1.521 4.839 4.521 5.358 8.075-0.006 0 0.88 4.178-1.21 8.040zM29.005 26.855h-7.949c0.305-2.019-0.098-4.227-0.098-4.227-0.36-2.495-1.387-4.746-2.89-6.484 0.513-0.533 1.081-0.974 1.705-1.318 1.876 1.234 4.265 1.234 6.141 0 2.108 1.157 3.587 3.393 3.972 6.042 0 0 0.727 2.832-0.88 5.986z"></path>
</symbol>
<symbol id="icon-Star-full" viewBox="0 0 34 32">
<path fill="#ab816c" style="fill: var(--color2, #ab816c)" d="M15.381 2.79c0.504-1.552 2.699-1.552 3.204 0l2.51 7.726c0.226 0.694 0.872 1.164 1.602 1.164h8.124c1.632 0 2.31 2.088 0.99 3.047l-6.572 4.775c-0.59 0.429-0.837 1.189-0.612 1.883l2.51 7.726c0.504 1.552-1.272 2.842-2.592 1.883l-6.572-4.775c-0.59-0.429-1.39-0.429-1.98 0l-6.572 4.775c-1.32 0.959-3.096-0.331-2.592-1.883l2.51-7.726c0.225-0.694-0.022-1.454-0.612-1.883l-6.572-4.775c-1.32-0.959-0.642-3.047 0.99-3.047h8.124c0.73 0 1.376-0.47 1.602-1.164l2.51-7.726z"></path>
</symbol>
<symbol id="icon-Star" viewBox="0 0 34 32">
<path fill="none" stroke="#ab816c" stroke-width="1.6842" stroke-miterlimit="4" stroke-linecap="butt" stroke-linejoin="miter" style="stroke: var(--color2, #ab816c)" d="M15.901 3.050c0.252-0.776 1.35-0.776 1.602 0l2.51 7.726c0.338 1.041 1.308 1.746 2.403 1.746h8.124c0.816 0 1.155 1.044 0.495 1.523l-6.572 4.775c-0.885 0.643-1.256 1.784-0.918 2.825l2.51 7.726c0.252 0.776-0.636 1.421-1.296 0.941l-6.572-4.775c-0.885-0.643-2.084-0.643-2.97 0l-6.572 4.775c-0.66 0.48-1.548-0.166-1.296-0.941l2.51-7.726c0.338-1.041-0.032-2.181-0.918-2.825l-6.572-4.775c-0.66-0.479-0.321-1.523 0.495-1.523h8.124c1.094 0 2.064-0.705 2.403-1.746l2.51-7.726z"></path>
</symbol>
<symbol id="icon-twitter" viewBox="0 0 34 32">
<path d="M34.133 3.67c-1.269 0.622-2.622 1.035-4.032 1.235 1.451-0.968 2.558-2.49 3.078-4.324-1.353 0.901-2.846 1.538-4.437 1.893-1.284-1.529-3.115-2.475-5.111-2.475-3.874 0-6.993 3.515-6.993 7.824 0 0.62 0.047 1.216 0.162 1.784-5.818-0.317-10.965-3.434-14.423-8.182-0.604 1.171-0.958 2.511-0.958 3.954 0 2.709 1.248 5.111 3.108 6.501-1.124-0.024-2.227-0.389-3.162-0.963 0 0.024 0 0.055 0 0.086 0 3.801 2.426 6.959 5.606 7.686-0.57 0.174-1.19 0.258-1.835 0.258-0.448 0-0.9-0.029-1.325-0.134 0.907 3.098 3.479 5.375 6.539 5.449-2.381 2.082-5.404 3.336-8.676 3.336-0.574 0-1.124-0.029-1.675-0.107 3.1 2.235 6.773 3.51 10.735 3.51 12.877 0 19.917-11.924 19.917-22.259 0-0.346-0.011-0.68-0.026-1.011 1.389-1.102 2.556-2.478 3.507-4.061z"></path>
</symbol>
<symbol id="icon-phone" viewBox="0 0 32 32">
<path d="M29.43 20.469c-1.959 0-3.882-0.299-5.705-0.886-0.893-0.297-1.991-0.025-2.536 0.521l-3.598 2.647c-4.172-2.171-6.743-4.675-8.939-8.711l2.636-3.415c0.685-0.667 0.931-1.64 0.636-2.554-0.605-1.786-0.912-3.66-0.912-5.57 0-1.38-1.152-2.502-2.567-2.502h-5.876c-1.416 0-2.568 1.123-2.568 2.502 0 15.816 13.202 28.682 29.43 28.682 1.416 0 2.568-1.122 2.568-2.502v-5.711c0-1.38-1.152-2.502-2.568-2.502z"></path>
</symbol>
<symbol id="icon-location" viewBox="0 0 23 32">
<path d="M11.733 0c6.47 0 11.733 5.13 11.733 11.435 0 2.495-0.809 4.866-2.341 6.855l-8.669 11.379c-0.022 0.028-0.055 0.038-0.079 0.063-0.433 0.452-1.058 0.338-1.367-0.063-2.496-3.247-7.072-9.309-8.832-11.596 0 0-0.001-0.002-0.001-0.003l-0.011-0.014c-1.418-1.941-2.167-4.23-2.167-6.621 0-6.305 5.264-11.435 11.733-11.435zM11.733 17.604c3.483 0 6.33-2.774 6.33-6.169s-2.847-6.169-6.33-6.169c-3.483 0-6.33 2.774-6.33 6.169s2.847 6.169 6.33 6.169z"></path>
</symbol>
<symbol id="icon-instagram" viewBox="0 0 32 32">
<path d="M16.316 32c-0.106 0-0.212 0-0.319-0-2.508 0.006-4.826-0.058-7.080-0.195-2.066-0.126-3.953-0.84-5.455-2.065-1.45-1.182-2.44-2.781-2.942-4.75-0.438-1.715-0.461-3.398-0.483-5.026-0.016-1.168-0.033-2.553-0.036-3.96 0.003-1.414 0.020-2.798 0.036-3.966 0.022-1.628 0.045-3.311 0.483-5.026 0.503-1.97 1.493-3.568 2.942-4.75 1.503-1.225 3.389-1.939 5.456-2.065 2.254-0.137 4.572-0.201 7.086-0.195 2.509-0.005 4.826 0.058 7.080 0.195 2.066 0.126 3.953 0.84 5.455 2.065 1.45 1.182 2.44 2.781 2.943 4.75 0.437 1.715 0.461 3.398 0.483 5.026 0.016 1.168 0.033 2.553 0.036 3.96v0.006c-0.003 1.408-0.020 2.792-0.036 3.96-0.022 1.628-0.045 3.311-0.483 5.026-0.503 1.97-1.493 3.568-2.943 4.75-1.502 1.225-3.389 1.939-5.455 2.065-2.159 0.131-4.376 0.195-6.768 0.195zM15.997 29.5c2.468 0.006 4.733-0.056 6.934-0.19 1.563-0.095 2.917-0.602 4.027-1.507 1.026-0.837 1.732-1.991 2.1-3.431 0.364-1.428 0.385-2.96 0.406-4.442 0.016-1.16 0.032-2.535 0.036-3.929-0.004-1.394-0.020-2.769-0.036-3.929-0.020-1.482-0.041-3.015-0.406-4.443-0.367-1.44-1.074-2.594-2.1-3.431-1.11-0.905-2.465-1.412-4.027-1.507-2.201-0.134-4.467-0.196-6.928-0.19-2.467-0.006-4.733 0.056-6.934 0.19-1.563 0.095-2.917 0.602-4.027 1.507-1.026 0.837-1.732 1.991-2.1 3.431-0.364 1.428-0.385 2.96-0.406 4.443-0.016 1.161-0.032 2.537-0.036 3.932 0.003 1.389 0.020 2.765 0.036 3.926 0.020 1.482 0.041 3.015 0.406 4.442 0.367 1.44 1.074 2.594 2.1 3.431 1.11 0.905 2.465 1.412 4.027 1.507 2.201 0.134 4.467 0.197 6.928 0.191zM15.937 23.812c-4.308 0-7.813-3.505-7.813-7.812s3.505-7.813 7.813-7.813c4.308 0 7.813 3.505 7.813 7.813s-3.505 7.812-7.813 7.812zM15.937 10.687c-2.929 0-5.313 2.383-5.313 5.313s2.383 5.312 5.313 5.312c2.93 0 5.313-2.383 5.313-5.312s-2.383-5.313-5.313-5.313zM24.625 5.687c-1.035 0-1.875 0.839-1.875 1.875s0.84 1.875 1.875 1.875c1.036 0 1.875-0.839 1.875-1.875s-0.839-1.875-1.875-1.875z"></path>
</symbol>
<symbol id="icon-facebook" viewBox="0 0 16 32">
<path d="M14.512 0.007l-3.617-0.007c-4.064 0-6.69 3.091-6.69 7.875v3.631h-3.637c-0.314 0-0.569 0.292-0.569 0.653v5.261c0 0.361 0.255 0.652 0.569 0.652h3.637v13.275c0 0.36 0.254 0.652 0.569 0.652h4.745c0.314 0 0.569-0.292 0.569-0.652v-13.275h4.252c0.314 0 0.569-0.292 0.569-0.652l0.002-5.261c0-0.173-0.060-0.339-0.167-0.461s-0.252-0.191-0.402-0.191h-4.254v-3.078c0-1.479 0.307-2.23 1.987-2.23l2.437-0.001c0.314 0 0.568-0.292 0.568-0.652v-4.885c0-0.36-0.254-0.652-0.568-0.652z"></path>
</symbol>
<symbol id="icon-arrow-right2" viewBox="0 0 32 32">
<path d="M19.414 27.414l10-10c0.781-0.781 0.781-2.047 0-2.828l-10-10c-0.781-0.781-2.047-0.781-2.828 0s-0.781 2.047 0 2.828l6.586 6.586h-19.172c-1.105 0-2 0.895-2 2s0.895 2 2 2h19.172l-6.586 6.586c-0.39 0.39-0.586 0.902-0.586 1.414s0.195 1.024 0.586 1.414c0.781 0.781 2.047 0.781 2.828 0z"></path>
</symbol>
</defs>
</svg>
